<svg width="541" height="540" fill="none" xmlns="http://www.w3.org/2000/svg"><path fill-rule="evenodd" clip-rule="evenodd" d="M113.863 81.817c.793 4.128 3.294 12.81 7.503 26.048l-7.503 12.225-12.388 4.855c-12.391-12.112-19.04-18.742-19.947-19.89-1.36-1.723-.001-5.374 3.032-4.567 1.976.525 5.813 2.274 11.51 5.247a1.606 1.606 0 0 0 2.048-2.359c-2.2-3.07-6.845-6.389-9.235-9.519-4.323-5.663 2.815-9.649 5.61-6.977 1.804 1.724 5.534 5.56 11.191 11.51a.925.925 0 0 0 1.236.094c.407-.314.606-.828.518-1.333-1.471-8.474-2.206-13.898-2.206-16.272 0-3.675 7.44-5.254 8.631.938z" fill="#F9BDA0"/><path fill-rule="evenodd" clip-rule="evenodd" d="M125.803 124.854l-2.07-4.54c3.476-9.254 8.588-17.574 15.335-24.96.859-2.706-1.279-5.497-5.114-5.497-3.836 0-9.543 5.498-14.218 13.414-16.087-1.533-21.555 12.095-20.261 17.674.813 3.342 2.415 6.019 4.807 8.03l5.382 5.952 16.139-10.073z" fill="#FBCCB6"/><g filter="url(#filter0_dd_2_1992)"><path d="M257.646 420c91.679 0 166-74.321 166-166s-74.321-166-166-166c-91.68 0-166 74.321-166 166s74.32 166 166 166z" fill="#03A9F5"/></g><path fill-rule="evenodd" clip-rule="evenodd" d="M246.646 220.777l-10 5.084-11.184 129.528h79.184l-16-124.359-12.816-10.253h-29.184z" fill="#fff"/><path fill-rule="evenodd" clip-rule="evenodd" d="M277.064 224.502l5.314 6.528 6.606 124.359h33.127l-25.369-124.207a13.003 13.003 0 0 0-7.635-9.356l-13.277-5.665h-30.853l-11.342 5.314a12.998 12.998 0 0 0-7.378 10.104l-16.012 123.81h27.954l2.627-126.575 2.433-4.312h33.805z" fill="#24262D"/><path fill-rule="evenodd" clip-rule="evenodd" d="M277.064 196.289c-2.349 8.939-2.349 18.344 0 28.213l-15.652 15.154-18.153-15.154c1.245-9.751 1.245-19.155 0-28.213 15.366-6.667 26.387-2.578 33.805 0z" fill="#F9BB9E"/><path d="M297.646 260h-9v3h9v-3z" fill="#fff"/><path d="M211.646 163c6.627 0 12-5.373 12-12s-5.373-12-12-12c-6.628 0-12 5.373-12 12s5.372 12 12 12z" fill="url(#paint0_linear_2_1992)"/><path d="M304.646 161c6.627 0 12-5.373 12-12s-5.373-12-12-12c-6.628 0-12 5.373-12 12s5.372 12 12 12z" fill="#F9B899"/><path fill-rule="evenodd" clip-rule="evenodd" d="M280.365 196.925l10.598-9.142a34 34 0 0 0 11.782-24.89l1.901-75.55-93 1.657 1.727 71.665a33.999 33.999 0 0 0 12.041 25.147l13.392 11.32c12.02 10.16 29.642 10.072 41.559-.207z" fill="url(#paint1_radial_2_1992)"/><path fill-rule="evenodd" clip-rule="evenodd" d="M271.491 57.083c-1.448 2.24-1.448 3.864 0 4.875 22.946-4.875 38.447 17.55 36.612 23.056-2.237 10.06-2.303 27.537-.199 52.433a12.033 12.033 0 0 0-4.483-.385l.012-.002c-2.812-4.639-4.218-15.157-4.218-31.555-5.315-9.072-5.518-12.478-19.435-14.098-10.134 7.527-20.817 9.157-39.448 0-10.508 9.157-20.436 2.478-23.945 9.157A5096.977 5096.977 0 0 1 213.044 139l-.215.139-.001-.081a11.933 11.933 0 0 0-.785-.052l-.397-.006c-1.003 0-1.977.123-2.908.355l.001.393c0-41.7-11.575-53.19 6.194-57.112 0-17.035 18.853-25.553 56.558-25.553z" fill="#22242C"/><g filter="url(#filter1_d_2_1992)"><path fill-rule="evenodd" clip-rule="evenodd" d="M280.293 145.988c4.407.308 7.916 1.474 8.224-2.934.309-4.407-3.106-6.927-7.513-7.235-4.408-.308-8.139 1.712-8.448 6.119-.308 4.408 3.329 3.741 7.737 4.05z" fill="#fff"/><circle cx="280.646" cy="142" r="4" fill="url(#paint2_radial_2_1992)"/></g><g filter="url(#filter2_d_2_1992)"><path fill-rule="evenodd" clip-rule="evenodd" d="M236.998 146.988c4.408-.309 8.045.358 7.737-4.05-.309-4.407-4.04-6.427-8.448-6.119-4.407.308-7.822 2.828-7.513 7.235.308 4.408 3.817 3.242 8.224 2.934z" fill="#fff"/><circle cx="236.646" cy="143" r="4" fill="url(#paint3_radial_2_1992)"/></g><path d="M225.462 130.309c3.046-4.87 8.473-6.451 16.281-4.74" stroke="#222529" stroke-width="4" stroke-linecap="round" stroke-linejoin="round"/><path d="M291.215 127.606c-4.289-5.116-10.18-6.018-17.674-2.704" stroke="#24262A" stroke-width="4" stroke-linecap="round" stroke-linejoin="round"/><path d="M259.146 182.056c6.903 0 12.5-5.596 12.5-12.5-7.351-3.408-20.834-3.408-25 0 0 6.904 5.596 12.5 12.5 12.5z" fill="#DAA88F"/><mask id="a" style="mask-type:luminance" maskUnits="userSpaceOnUse" x="246" y="167" width="26" height="16"><path d="M259.146 182.056c6.903 0 12.5-5.596 12.5-12.5-7.351-3.408-20.834-3.408-25 0 0 6.904 5.596 12.5 12.5 12.5z" fill="#fff"/></mask><g mask="url(#a)"><path fill-rule="evenodd" clip-rule="evenodd" d="M258.692 158.093c7.18 0 13 5.82 13 13-1.832 2.692-25.063 1.225-26 0 0-7.18 5.82-13 13-13z" fill="#fff"/></g><g filter="url(#filter3_f_2_1992)"><path fill-rule="evenodd" clip-rule="evenodd" d="M258.146 159a3.5 3.5 0 0 0 3.5-3.5c0-1.933-1.567-12.5-3.5-12.5s-3.5 10.567-3.5 12.5a3.5 3.5 0 0 0 3.5 3.5z" fill="#F9BB9E"/></g><path fill-rule="evenodd" clip-rule="evenodd" d="M261.275 239.585l9.371 8.968-3.995 4.144 3.995 70.852-15.813 9.003 2.282-79.855-5.21-4.144 9.37-8.968z" fill="#24262D"/><path fill-rule="evenodd" clip-rule="evenodd" d="M270.646 248.553l10.368-17.523-5.952 18.977-4.416-1.454zm-18.632 0l-11.188-19.739 6.772 21.193 4.416-1.454z" fill="#E1E1E1"/><path fill-rule="evenodd" clip-rule="evenodd" d="M228.307 227l-61.995-29.076-39.86-73.563-17.668 10.9c9.191 20.06 19.804 43.75 31.839 71.069 8.212 13.78 36.491 29.63 84.839 47.549L228.307 227z" fill="#24262D"/><path d="M422.146 117c23.472 0 42.5-19.028 42.5-42.5S445.618 32 422.146 32c-23.473 0-42.5 19.028-42.5 42.5s19.027 42.5 42.5 42.5z" fill="#03A9F5"/><path fill-rule="evenodd" clip-rule="evenodd" d="M296.029 228.814c2.731-1.082 16.69 17.905 41.879 56.961l-35.087.293c-4.528-35.058-6.792-54.143-6.792-57.254z" fill="#24262D"/><path d="M361.646 277h-201a6 6 0 0 0-6 6v134a6 6 0 0 0 6 6h201a6 6 0 0 0 6-6V283a6 6 0 0 0-6-6z" fill="#D8D8D8"/><path d="M283.255 325.532c1.141 0 2.256.339 3.205.972a5.775 5.775 0 0 1 2.452 5.921 5.764 5.764 0 0 1-7.864 4.203 5.765 5.765 0 0 1-1.871-9.406 5.768 5.768 0 0 1 4.078-1.69z" fill="#B3B4B5"/><path fill-rule="evenodd" clip-rule="evenodd" d="M272.385 336.277a19.758 19.758 0 0 0-24.952 2.457 19.76 19.76 0 0 0-2.457 24.952 19.763 19.763 0 0 0 20.285 8.402 19.757 19.757 0 0 0 15.526-15.526 19.761 19.761 0 0 0-8.402-20.285zm-17.887 16.422c0-7.888 1.703-10.201 8.266-10.201h.008a29.778 29.778 0 0 1 5.036.313.534.534 0 0 1 .353.178.526.526 0 0 1 .121.376v1.687c0 .289-.128.418-.393.418h-5.141c-4.105 0-4.82 1.614-4.82 7.229s.707 7.278 4.82 7.278h5.229a.352.352 0 0 1 .305.393v1.663a.528.528 0 0 1-.129.393.527.527 0 0 1-.369.186 33.006 33.006 0 0 1-5.036.313c-6.563 0-8.25-2.338-8.25-10.226z" fill="#B3B4B5"/><rect x="154.646" y="425" width="213" height="11" rx="4" fill="#D0D0D0"/><defs><filter id="filter0_dd_2_1992" x=".646" y="0" width="540" height="540" filterUnits="userSpaceOnUse" color-interpolation-filters="sRGB"><feFlood flood-opacity="0" result="BackgroundImageFix"/><feColorMatrix in="SourceAlpha" values="0 0 0 0 0 0 0 0 0 0 0 0 0 0 0 0 0 0 127 0" result="hardAlpha"/><feOffset dy="-16"/><feGaussianBlur stdDeviation="7"/><feComposite in2="hardAlpha" operator="out"/><feColorMatrix values="0 0 0 0 1 0 0 0 0 1 0 0 0 0 1 0 0 0 1 0"/><feBlend in2="BackgroundImageFix" result="effect1_dropShadow_2_1992"/><feColorMatrix in="SourceAlpha" values="0 0 0 0 0 0 0 0 0 0 0 0 0 0 0 0 0 0 127 0" result="hardAlpha"/><feOffset dx="13" dy="16"/><feGaussianBlur stdDeviation="52"/><feComposite in2="hardAlpha" operator="out"/><feColorMatrix values="0 0 0 0 1 0 0 0 0 1 0 0 0 0 1 0 0 0 1 0"/><feBlend in2="effect1_dropShadow_2_1992" result="effect2_dropShadow_2_1992"/><feBlend in="SourceGraphic" in2="effect2_dropShadow_2_1992" result="shape"/></filter><filter id="filter1_d_2_1992" x="263.538" y="126.788" width="35.999" height="30.57" filterUnits="userSpaceOnUse" color-interpolation-filters="sRGB"><feFlood flood-opacity="0" result="BackgroundImageFix"/><feColorMatrix in="SourceAlpha" values="0 0 0 0 0 0 0 0 0 0 0 0 0 0 0 0 0 0 127 0" result="hardAlpha"/><feOffset dx="1" dy="1"/><feGaussianBlur stdDeviation="5"/><feColorMatrix values="0 0 0 0 0.976471 0 0 0 0 0.721569 0 0 0 0 0.6 0 0 0 1 0"/><feBlend in2="BackgroundImageFix" result="effect1_dropShadow_2_1992"/><feBlend in="SourceGraphic" in2="effect1_dropShadow_2_1992" result="shape"/></filter><filter id="filter2_d_2_1992" x="219.754" y="127.788" width="35.999" height="30.57" filterUnits="userSpaceOnUse" color-interpolation-filters="sRGB"><feFlood flood-opacity="0" result="BackgroundImageFix"/><feColorMatrix in="SourceAlpha" values="0 0 0 0 0 0 0 0 0 0 0 0 0 0 0 0 0 0 127 0" result="hardAlpha"/><feOffset dx="1" dy="1"/><feGaussianBlur stdDeviation="5"/><feColorMatrix values="0 0 0 0 0.976471 0 0 0 0 0.721569 0 0 0 0 0.6 0 0 0 1 0"/><feBlend in2="BackgroundImageFix" result="effect1_dropShadow_2_1992"/><feBlend in="SourceGraphic" in2="effect1_dropShadow_2_1992" result="shape"/></filter><filter id="filter3_f_2_1992" x="252.646" y="141" width="11" height="20" filterUnits="userSpaceOnUse" color-interpolation-filters="sRGB"><feFlood flood-opacity="0" result="BackgroundImageFix"/><feBlend in="SourceGraphic" in2="BackgroundImageFix" result="shape"/><feGaussianBlur stdDeviation="1" result="effect1_foregroundBlur_2_1992"/></filter><linearGradient id="paint0_linear_2_1992" x1="1778.72" y1="1339" x2="430.18" y2="1339" gradientUnits="userSpaceOnUse"><stop stop-color="#FDDDC9"/><stop offset=".326" stop-color="#FAC1A5"/><stop offset="1" stop-color="#F9B899"/></linearGradient><radialGradient id="paint1_radial_2_1992" cx="0" cy="0" r="1" gradientUnits="userSpaceOnUse" gradientTransform="scale(11453.1 9018.15) rotate(90 -.318 .066)"><stop stop-color="#FBCCB7"/><stop offset=".501" stop-color="#FBCDB5"/><stop offset="1" stop-color="#FF9561"/></radialGradient><radialGradient id="paint2_radial_2_1992" cx="0" cy="0" r="1" gradientUnits="userSpaceOnUse" gradientTransform="matrix(0 4 -4 0 280.646 142)"><stop stop-color="#20446A"/><stop offset="1"/></radialGradient><radialGradient id="paint3_radial_2_1992" cx="0" cy="0" r="1" gradientUnits="userSpaceOnUse" gradientTransform="matrix(0 4 -4 0 236.646 143)"><stop stop-color="#20446A"/><stop offset="1"/></radialGradient></defs></svg>